<?xml version="1.0"?>
<!-- Converted with SVG Converter - Version 0.9.5 (Compiled Mon May 30 09:08:51 2011) - Copyright (C) 2011 Nokia -->
<svg xmlns="http://www.w3.org/2000/svg" width="96px" x="0px" version="1.1" y="0px" height="96px" viewBox="0 0 96 96" xmlns:xlink="http://www.w3.org/1999/xlink" baseProfile="tiny" id="图层_1" xml:space="preserve">
 <g>
  <rect width="96" fill="none" height="96"/>
  <g>
   <path fill-opacity="0.4" d="M88,48.5c0,29.635-10.361,40-40,40c-29.635,0-40-10.365-40-40c0-29.633,10.365-40,40-40&#xd;&#xa;&#x9;&#x9;&#x9;C77.637,8.5,88,18.867,88,48.5z"/>
   <linearGradient gradientTransform="matrix(1 0 0 1 44.6797 -744.9199)" id="SVGID_1_" y1="752.9648" x1="3.3203" y2="833.6597" gradientUnits="userSpaceOnUse" x2="3.3203">
    <stop offset="0.0364" style="stop-color:#9DD4F9"/>
    <stop offset="0.4414" style="stop-color:#AEE6F9"/>
    <stop offset="1" style="stop-color:#9AD2F9"/>
   </linearGradient>
   <path fill="url(#SVGID_1_)" d="M88,47.5c0,29.633-10.363,40-40,40c-29.635,0-40-10.367-40-40c0-29.635,10.365-40,40-40&#xd;&#xa;&#x9;&#x9;&#x9;C77.637,7.5,88,17.865,88,47.5z"/>
   <g stroke-opacity="0.5" fill-opacity="0.5">
    <linearGradient gradientTransform="matrix(1 0 0 1 44.6797 -744.9199)" id="SVGID_2_" y1="752.9648" x1="3.3203" y2="833.6597" gradientUnits="userSpaceOnUse" x2="3.3203">
     <stop offset="0.0364" style="stop-color:#FFFFFF"/>
     <stop offset="0.2284" style="stop-color:#E1F2FE"/>
     <stop offset="0.6433" style="stop-color:#9ED5FB"/>
     <stop offset="1" style="stop-color:#9AD2F9"/>
    </linearGradient>
    <path fill="url(#SVGID_2_)" fill-opacity="0.25" d="M48,7.5c-29.635,0-40,10.365-40,40c0,29.633,10.365,40,40,40&#xd;&#xa;&#x9;&#x9;&#x9;&#x9;c29.637,0,40-10.367,40-40C88,17.865,77.637,7.5,48,7.5z M48,86.5c-29.158,0-39-9.842-39-39s9.842-39,39-39&#xd;&#xa;&#x9;&#x9;&#x9;&#x9;c29.16,0,39,9.842,39,39S77.16,86.5,48,86.5z"/>
    <g>
     <path stroke-opacity="0.02" fill="#040000" fill-opacity="0.02" id="path4502" d="&#xd;&#xa;&#x9;&#x9;&#x9;&#x9;&#x9;M9.478,64.271C13.244,81.541,24.624,88,48,88c23.377,0,34.756-6.459,38.521-23.729H9.478z"/>
     <path stroke-opacity="0.02" fill="#040000" fill-opacity="0.02" id="path4504" d="&#xd;&#xa;&#x9;&#x9;&#x9;&#x9;&#x9;M10.242,67.271C14.659,82.293,26.03,88,48,88c21.971,0,33.342-5.707,37.758-20.729H10.242z"/>
     <path stroke-opacity="0.02" fill="#040000" fill-opacity="0.02" id="path4506" d="&#xd;&#xa;&#x9;&#x9;&#x9;&#x9;&#x9;M11.258,70.271C16.284,83.063,27.555,88,48,88s31.717-4.938,36.742-17.729H11.258z"/>
     <path stroke-opacity="0.02" fill="#040000" fill-opacity="0.02" id="path4508" d="&#xd;&#xa;&#x9;&#x9;&#x9;&#x9;&#x9;M12.636,73.271C18.211,83.836,29.241,88,48,88c18.76,0,29.789-4.162,35.365-14.729H12.636z"/>
     <path stroke-opacity="0.02" fill="#040000" fill-opacity="0.02" id="path4510" d="&#xd;&#xa;&#x9;&#x9;&#x9;&#x9;&#x9;M13.797,75.271C19.685,84.369,30.47,88,48,88c17.531,0,28.316-3.631,34.203-12.729H13.797z"/>
     <path stroke-opacity="0.02" fill="#040000" fill-opacity="0.02" id="path4512" d="&#xd;&#xa;&#x9;&#x9;&#x9;&#x9;&#x9;M15.255,77.271C21.396,84.898,31.82,88,48,88s26.604-3.102,32.744-10.729H15.255z"/>
     <path fill="#040000" fill-opacity="0.02" id="path4514" d="M17.059,79.271&#xd;&#xa;&#x9;&#x9;&#x9;&#x9;&#x9;C23.363,85.447,33.313,88,48,88s24.639-2.553,30.941-8.729H17.059z"/>
     <path stroke-opacity="0.01" fill="#FFFFFF" fill-opacity="0.01" id="path4517" d="M48,9&#xd;&#xa;&#x9;&#x9;&#x9;&#x9;&#x9;C18.365,9,8,19.364,8,48.999c0,2.889,0.102,5.588,0.307,8.12l0.219,0.02h78.959l0.209-0.018C87.898,54.589,88,51.89,88,48.999&#xd;&#xa;&#x9;&#x9;&#x9;&#x9;&#x9;C88,19.364,77.637,9,48,9z"/>
     <path stroke-opacity="0.01" fill="#FFFFFF" fill-opacity="0.01" id="path4519" d="M48,8&#xd;&#xa;&#x9;&#x9;&#x9;&#x9;&#x9;C18.365,8,8,18.364,8,48c0,1.051,0.017,2.072,0.043,3.077l0.701,0.062H87.26l0.697-0.063C87.982,50.071,88,49.05,88,47.999&#xd;&#xa;&#x9;&#x9;&#x9;&#x9;&#x9;C88,18.364,77.637,8,48,8z"/>
     <path stroke-opacity="0.01" fill="#FFFFFF" fill-opacity="0.01" id="path4521" d="&#xd;&#xa;&#x9;&#x9;&#x9;&#x9;&#x9;M8.965,46.137h78.072l0.941-0.084C87.521,17.918,76.975,8,48,8C19.026,8,8.479,17.919,8.021,46.054L8.965,46.137z"/>
     <path stroke-opacity="0.01" fill="#FFFFFF" fill-opacity="0.01" id="path4523" d="&#xd;&#xa;&#x9;&#x9;&#x9;&#x9;&#x9;M9.186,41.137h77.629l0.961-0.086C86.146,16.733,75.188,8,48,8C20.814,8,9.853,16.734,8.225,41.053L9.186,41.137z"/>
     <path stroke-opacity="0.01" fill="#FFFFFF" fill-opacity="0.01" id="path4525" d="&#xd;&#xa;&#x9;&#x9;&#x9;&#x9;&#x9;M9.186,37.137h77.629c0.201,0,0.396-0.036,0.594-0.066C84.854,15.773,73.648,8,48,8C22.354,8,11.146,15.773,8.592,37.071&#xd;&#xa;&#x9;&#x9;&#x9;&#x9;&#x9;C8.789,37.101,8.983,37.137,9.186,37.137z"/>
     <path stroke-opacity="0.01" fill="#FFFFFF" fill-opacity="0.01" id="path4527" d="M48,8&#xd;&#xa;&#x9;&#x9;&#x9;&#x9;&#x9;C23.996,8,12.637,14.805,9.186,33.138h77.629C83.363,14.804,72.006,8,48,8z"/>
     <path stroke-opacity="0.01" fill="#FFFFFF" fill-opacity="0.01" id="path4529" d="&#xd;&#xa;&#x9;&#x9;&#x9;&#x9;&#x9;M84.074,29.69l1.6-0.376c0.082-0.02,0.158-0.058,0.238-0.084C81.605,13.826,70.221,8,48,8c-22.218,0-33.604,5.827-37.913,21.23&#xd;&#xa;&#x9;&#x9;&#x9;&#x9;&#x9;c0.081,0.026,0.156,0.064,0.239,0.084l1.599,0.376c0.226,0.054,0.456,0.08,0.688,0.08h70.774&#xd;&#xa;&#x9;&#x9;&#x9;&#x9;&#x9;C83.617,29.771,83.85,29.744,84.074,29.69z"/>
     <path stroke-opacity="0.01" fill="#FFFFFF" fill-opacity="0.01" id="path4531" d="&#xd;&#xa;&#x9;&#x9;&#x9;&#x9;&#x9;M12.612,26.771h70.774l1.6-0.376C80.09,13.113,68.793,8,48,8c-20.792,0-32.09,5.114-36.986,18.395L12.612,26.771z"/>
     <path stroke-opacity="0.01" fill="#FFFFFF" fill-opacity="0.01" id="path4533" d="&#xd;&#xa;&#x9;&#x9;&#x9;&#x9;&#x9;M12.612,24.771h70.774c0.305,0,0.594-0.081,0.859-0.208C78.998,12.642,67.811,8,48,8c-19.809,0-30.998,4.643-36.247,16.563&#xd;&#xa;&#x9;&#x9;&#x9;&#x9;&#x9;C12.019,24.689,12.309,24.771,12.612,24.771z"/>
     <path stroke-opacity="0.01" fill="#FFFFFF" fill-opacity="0.01" id="path4535" d="&#xd;&#xa;&#x9;&#x9;&#x9;&#x9;&#x9;M83.387,22.771C77.82,12.174,66.785,8,48,8s-29.819,4.174-35.388,14.771H83.387z"/>
    </g>
   </g>
   <g>
    <g id="PLACE_YOUR_GRAPHIC_HERE_1_">
     <g>
      <path fill="#4484BD" d="M53.094,23.353c2.223-0.066,4.436-0.066,6.657,0.005c0.62,2.569-1.01,6.031,0.69,8.213&#xd;&#xa;&#x9;&#x9;&#x9;&#x9;&#x9;&#x9;c3.461,0.183,6.929-0.039,10.396,0.111c0.065,1.434,0.058,2.868-0.038,4.302c-3.277,0.615-6.604,0.615-9.93,0.688&#xd;&#xa;&#x9;&#x9;&#x9;&#x9;&#x9;&#x9;c-0.067,3.101,0.311,6.191,0.641,9.275c3.219,0.619,6.885,0.957,9.221,3.527c1.602,2.202,2.438,4.911,2.397,7.635&#xd;&#xa;&#x9;&#x9;&#x9;&#x9;&#x9;&#x9;c0.774,4.442-0.134,9.365-3.543,12.562c-5.444,3.62-12.742,3.922-18.674,1.274c-4.662-1.297-7.01-6.567-6.717-11.086&#xd;&#xa;&#x9;&#x9;&#x9;&#x9;&#x9;&#x9;c-1.39,1.084-2.681,2.301-4.197,3.217c-2.055-2.504-3.66-5.521-6.136-7.627c-1.429,4.275-3.112,8.455-4.673,12.683&#xd;&#xa;&#x9;&#x9;&#x9;&#x9;&#x9;&#x9;c-1.828,0.163-3.589-0.593-5.311-1.118c3.578-10.127,7.282-20.213,11.075-30.258c1.627,0.515,3.251,1.046,4.846,1.655&#xd;&#xa;&#x9;&#x9;&#x9;&#x9;&#x9;&#x9;c-0.843,3.937-3.051,7.53-3.86,11.457c2.758,3.128,5.217,6.583,8.19,9.515c0.271-6.004,3.832-11.807,10.022-12.97&#xd;&#xa;&#x9;&#x9;&#x9;&#x9;&#x9;&#x9;C54.76,38.753,53.169,30.983,53.094,23.353C55.314,23.287,53.116,25.59,53.094,23.353z M57.182,52.35&#xd;&#xa;&#x9;&#x9;&#x9;&#x9;&#x9;&#x9;c-5.755,0.773-7.367,8.473-4.164,12.631c2.701,2.369,6.811,2.42,10.127,1.65c4.551-0.908,5.34-7.139,3.84-10.646&#xd;&#xa;&#x9;&#x9;&#x9;&#x9;&#x9;&#x9;C65.499,52.223,60.637,51.646,57.182,52.35z"/>
      <path fill="#4484BD" d="M36.142,25.862c3.572-1.019,8.583,0.205,9.73,4.154c2.014,7.404,0.409,15.218-1.096,22.565&#xd;&#xa;&#x9;&#x9;&#x9;&#x9;&#x9;&#x9;c-1.645-0.354-3.273-0.729-4.908-1.129c0.267-4.059,1.718-7.926,1.757-12.017c0.731-2.49,0.814-6.38-1.955-7.637&#xd;&#xa;&#x9;&#x9;&#x9;&#x9;&#x9;&#x9;c-3.112-0.033-7.305-1.074-9.68,1.628c-1.54,1.44-1.113,3.698-1.479,5.604c-0.864,4.297,0.454,8.856-0.998,13.041&#xd;&#xa;&#x9;&#x9;&#x9;&#x9;&#x9;&#x9;c-1.611,0.033-3.223,0.144-4.834,0.033c0.04-3.256-0.255-6.544,0.155-9.785c0.853-4.674-0.758-10.246,3.234-13.899&#xd;&#xa;&#x9;&#x9;&#x9;&#x9;&#x9;&#x9;C29.142,26.57,32.665,26.193,36.142,25.862z"/>
     </g>
    </g>
    <g>
     <path stroke-opacity="0.8" fill="#FFFFCA" fill-opacity="0.8" d="M47.08,87.486C74.799,87.242,87.258,75.529,88,48.709&#xd;&#xa;&#x9;&#x9;&#x9;&#x9;&#x9;C80.322,77.986,49.35,86.98,47.08,87.486z"/>
     <linearGradient gradientTransform="matrix(1 0 0 1 44.6797 -744.9199)" id="SVGID_3_" y1="825.4033" x1="35.2217" y2="816.9378" gradientUnits="userSpaceOnUse" x2="26.7562">
      <stop offset="0" style="stop-color:#F9E26B"/>
      <stop offset="0.2269" style="stop-color:#F3DB62"/>
      <stop offset="0.5967" style="stop-color:#E1C64A"/>
      <stop offset="1" style="stop-color:#C9AA28"/>
     </linearGradient>
     <path fill="url(#SVGID_3_)" d="M49.08,87.486c27.719-0.244,38.131-9.957,38.871-36.777C80.275,79.986,51.35,86.98,49.08,87.486z&#xd;&#xa;&#x9;&#x9;&#x9;&#x9;&#x9;"/>
     <linearGradient gradientTransform="matrix(1 0 0 -1 22.3398 -3.96)" id="SVGID_4_" y1="-83.105" x1="56.2236" y2="-72.5339" gradientUnits="userSpaceOnUse" x2="45.6526">
      <stop offset="0" style="stop-color:#C9AA28"/>
      <stop offset="0.4651" style="stop-color:#E1C649"/>
      <stop offset="1" style="stop-color:#F9E26B"/>
     </linearGradient>
     <path fill="url(#SVGID_4_)" d="M49.08,87.486c27.717-0.244,38.129-9.957,38.871-36.777C85,78.5,70,84.5,49.08,87.486z"/>
     <radialGradient cx="-551.3145" cy="2312.002" gradientTransform="matrix(0.7071 -0.7071 0.198 0.198 1.0576 -779.1095)" id="SVGID_5_" r="24.5068" gradientUnits="userSpaceOnUse">
      <stop offset="0" style="stop-color:#FFFFFF;stop-opacity:0.5"/>
      <stop offset="0.85" style="stop-color:#FFFFFF;stop-opacity:0.06"/>
      <stop offset="1" style="stop-color:#FFFFFF;stop-opacity:0"/>
     </radialGradient>
     <path fill="url(#SVGID_5_)" fill-opacity="0.85" d="M86.33,51.171c2.68,2.681-2.906,12.61-12.479,22.183&#xd;&#xa;&#x9;&#x9;&#x9;&#x9;&#x9;c-9.57,9.569-19.5,15.154-22.182,12.478c-2.68-2.681,2.906-12.61,12.479-22.183C73.719,54.076,83.648,48.491,86.33,51.171z"/>
    </g>
   </g>
  </g>
 </g>
</svg>
