<?xml version="1.0" encoding="utf-8"?>
<!-- Generator: Adobe Illustrator 16.0.0, SVG Export Plug-In . SVG Version: 6.00 Build 0)  -->
<!DOCTYPE svg PUBLIC "-//W3C//DTD SVG 1.1//EN" "http://www.w3.org/Graphics/SVG/1.1/DTD/svg11.dtd">
<svg version="1.1" id="图层_1" xmlns="http://www.w3.org/2000/svg" xmlns:xlink="http://www.w3.org/1999/xlink" x="0px" y="0px"
	 width="30px" height="30px" viewBox="0 0 30 30" enable-background="new 0 0 30 30" xml:space="preserve">
<g>
	<path opacity="0.15" fill="#FFFFFF" enable-background="new    " d="M5.828,25h7.051l-3.524-3.525L5.828,25z M8.646,16.525
		l4.231-4.232L5.586,5H3C2.45,5,2,5.45,2,6v4l0.062-0.061L8.646,16.525z M20.172,5H8.414l5.879,5.879L20.172,5z M2,14.121v9.051
		l4.525-4.525L2,14.121z M27,5h-1.172l-5,5L28,17.172V6C28,5.45,27.551,5,27,5z M16.268,24.146L17.121,25H27c0.551,0,1-0.45,1-1
		v-1.172l-5.207-5.207L16.268,24.146z M18,12.828l-6.524,6.525l3.379,3.379l6.524-6.525L18,12.828z"/>
	<path fill="#FFFFFF" d="M5.828,25h7.051l-3.524-3.525L5.828,25z M8.646,16.525l4.231-4.232L5.586,5H3C2.45,5,2,5.45,2,6v4
		l0.062-0.061L8.646,16.525z M20.172,5H8.414l5.879,5.879L20.172,5z M2,14.121v9.051l4.525-4.525L2,14.121z M27,5h-1.172l-5,5
		L28,17.172V6C28,5.45,27.551,5,27,5z M16.268,24.146L17.121,25H27c0.551,0,1-0.45,1-1v-1.172l-5.207-5.207L16.268,24.146z
		 M18,12.828l-6.524,6.525l3.379,3.379l6.524-6.525L18,12.828z"/>
	<g id="DO_NOT_EDIT_-_BOUNDING_BOX">
		<rect id="BOUNDING_BOX" fill="none" width="30" height="30"/>
	</g>
	<linearGradient id="SVGID_1_" gradientUnits="userSpaceOnUse" x1="15.0005" y1="24" x2="15.0005" y2="4.0005">
		<stop  offset="0" style="stop-color:#636363"/>
		<stop  offset="1" style="stop-color:#000000"/>
	</linearGradient>
	<path fill="url(#SVGID_1_)" d="M5.828,24h7.051l-3.524-3.525L5.828,24z M8.646,15.525l4.231-4.232L5.586,4H3C2.45,4,2,4.45,2,5v4
		l0.062-0.061L8.646,15.525z M20.172,4H8.414l5.879,5.879L20.172,4z M2,13.121v9.051l4.525-4.525L2,13.121z M27,4h-1.172l-5,5
		L28,16.172V5C28,4.45,27.551,4,27,4z M16.268,23.146L17.121,24H27c0.551,0,1-0.45,1-1v-1.172l-5.207-5.207L16.268,23.146z
		 M18,11.828l-6.524,6.525l3.379,3.379l6.524-6.525L18,11.828z"/>
</g>
</svg>
