<?xml version="1.0" encoding="utf-8"?>
<!-- Generator: Adobe Illustrator 16.0.2, SVG Export Plug-In . SVG Version: 6.00 Build 0)  -->
<!DOCTYPE svg PUBLIC "-//W3C//DTD SVG 1.1//EN" "http://www.w3.org/Graphics/SVG/1.1/DTD/svg11.dtd">
<svg version="1.1" id="图层_1" xmlns="http://www.w3.org/2000/svg" xmlns:xlink="http://www.w3.org/1999/xlink" x="0px" y="0px"
	 width="44px" height="44px" viewBox="0 0 44 44" enable-background="new 0 0 44 44" xml:space="preserve">
<path fill-opacity="0.05" d="M22,6C9.765,6,5,10.766,5,23c0,12.234,4.765,17,17,17c12.232,0,17-4.766,17-17C39,10.766,34.232,6,22,6
	z M22,29.99h-2.663l-1.781-2.58l-2.048,2.58h-2.497v-2.163h1.498l1.665-2.098v-8.591h2.597v8.556l1.632,2.099H22V29.99z M22,25.729
	h-2.264v-9.59h-4.395v9.589h-2.331v-11.72H22V25.729z M30.989,29.991h-7.856V21h1.397v-6.991h2.132v0.999h3.995v2.331h-3.93V21
	h4.262V29.991z"/>
<polygon fill-opacity="0.05" points="18.471,25.797 18.471,17.438 16.474,17.438 16.474,25.834 14.654,28.127 13.311,28.127 
	13.311,29.69 15.363,29.69 17.572,26.906 19.494,29.69 21.7,29.69 21.7,28.093 20.255,28.093 "/>
<polygon fill-opacity="0.05" points="13.311,14.309 13.311,25.429 15.042,25.429 15.042,15.84 20.036,15.84 20.036,25.43 
	21.7,25.43 21.7,14.309 "/>
<polygon fill-opacity="0.05" points="18.471,25.797 18.471,17.438 16.474,17.438 16.474,25.834 14.654,28.127 13.311,28.127 
	13.311,29.69 15.363,29.69 17.572,26.906 19.494,29.69 21.7,29.69 21.7,28.093 20.255,28.093 "/>
<polygon fill-opacity="0.05" points="26.428,17.039 30.357,17.039 30.357,15.308 26.362,15.308 26.362,14.309 24.83,14.309 
	24.83,21.3 23.433,21.3 23.433,29.691 30.689,29.691 30.689,21.3 26.428,21.3 "/>
<path fill-opacity="0.05" d="M13.011,14.009v11.72h2.331V16.14h4.395v9.59H22V14.009H13.011z M21.7,25.43h-1.664v-9.59h-4.994v9.589
	h-1.731v-11.12h8.39V25.43z"/>
<polygon fill-opacity="0.05" points="13.311,14.309 13.311,25.429 15.042,25.429 15.042,15.84 20.036,15.84 20.036,25.43 
	21.7,25.43 21.7,14.309 "/>
<path fill-opacity="0.05" d="M20.402,27.793l-1.632-2.099v-8.556h-2.597v8.591l-1.665,2.098h-1.498v2.163h2.497l2.048-2.58
	l1.781,2.58H22v-2.197H20.402z M21.7,29.69h-2.206l-1.922-2.784l-2.209,2.784h-2.052v-1.563h1.343l1.82-2.293v-8.396h1.997v8.358
	l1.785,2.296H21.7V29.69z"/>
<path fill-opacity="0.05" d="M26.728,21v-3.661h3.93v-2.331h-3.995v-0.999H24.53V21h-1.397v8.991h7.856V21H26.728z M30.689,29.691
	h-7.257V21.3h1.397v-6.991h1.532v0.999h3.995v1.731h-3.93V21.3h4.262V29.691z"/>
<rect x="25.263" y="23.065" fill-opacity="0.05" width="3.729" height="4.66"/>
<path fill-opacity="0.05" d="M26.428,17.039h3.93v-1.731h-3.995v-0.999H24.83V21.3h-1.397v8.392h7.257V21.3h-4.262V17.039z
	 M28.992,23.065v4.66h-3.729v-4.66H28.992z"/>
<rect x="25.263" y="23.065" fill-opacity="0.05" width="3.729" height="4.66"/>
<path fill-opacity="0.1" d="M22,7C10.336,7,6,11.336,6,23s4.336,16,16,16c11.662,0,15.999-4.336,15.999-16S33.662,7,22,7z M22,29.99
	h-2.663l-1.781-2.58l-2.048,2.58h-2.497v-2.163h1.498l1.665-2.098v-8.591h2.597v8.556l1.632,2.099H22V29.99z M22,25.729h-2.264
	v-9.59h-4.395v9.589h-2.331v-11.72H22V25.729z M30.989,29.991h-7.856V21h1.397v-6.991h2.132v0.999h3.995v2.331h-3.93V21h4.262
	V29.991z"/>
<path fill-opacity="0.1" d="M13.011,14.009v11.72h2.331V16.14h4.395v9.59H22V14.009H13.011z M21.7,25.43h-1.664v-9.59h-4.994v9.589
	h-1.731v-11.12h8.39V25.43z"/>
<path fill-opacity="0.1" d="M20.402,27.793l-1.632-2.099v-8.556h-2.597v8.591l-1.665,2.098h-1.498v2.163h2.497l2.048-2.58
	l1.781,2.58H22v-2.197H20.402z M21.7,29.69h-2.206l-1.922-2.784l-2.209,2.784h-2.052v-1.563h1.343l1.82-2.293v-8.396h1.997v8.358
	l1.785,2.296H21.7V29.69z"/>
<path fill-opacity="0.1" d="M26.728,21v-3.661h3.93v-2.331h-3.995v-0.999H24.53V21h-1.397v8.991h7.856V21H26.728z M30.689,29.691
	h-7.257V21.3h1.397v-6.991h1.532v0.999h3.995v1.731h-3.93V21.3h4.262V29.691z"/>
<rect x="25.263" y="23.065" fill-opacity="0.1" width="3.729" height="4.66"/>
<rect x="25.263" y="23.065" fill-opacity="0.1" width="3.729" height="4.66"/>
<path fill-opacity="0.5" d="M22,8C10.885,8,7,11.887,7,23c0,11.113,3.885,15,15,15c11.111,0,15-3.887,15-15C37,11.887,33.111,8,22,8
	z M22,29.99h-2.663l-1.781-2.58l-2.048,2.58h-2.497v-2.163h1.498l1.665-2.098v-8.591h2.597v8.556l1.632,2.099H22V29.99z M22,25.729
	h-2.264v-9.59h-4.395v9.589h-2.331v-11.72H22V25.729z M30.989,29.991h-7.856V21h1.397v-6.991h2.132v0.999h3.995v2.331h-3.93V21
	h4.262V29.991z"/>
<path fill-opacity="0.5" d="M13.011,14.009v11.72h2.331V16.14h4.395v9.59H22V14.009H13.011z M21.7,25.43h-1.664v-9.59h-4.994v9.589
	h-1.731v-11.12h8.39V25.43z"/>
<path fill-opacity="0.5" d="M20.402,27.793l-1.632-2.099v-8.556h-2.597v8.591l-1.665,2.098h-1.498v2.163h2.497l2.048-2.58
	l1.781,2.58H22v-2.197H20.402z M21.7,29.69h-2.206l-1.922-2.784l-2.209,2.784h-2.052v-1.563h1.343l1.82-2.293v-8.396h1.997v8.358
	l1.785,2.296H21.7V29.69z"/>
<path fill-opacity="0.5" d="M26.728,21v-3.661h3.93v-2.331h-3.995v-0.999H24.53V21h-1.397v8.991h7.856V21H26.728z M30.689,29.691
	h-7.257V21.3h1.397v-6.991h1.532v0.999h3.995v1.731h-3.93V21.3h4.262V29.691z"/>
<rect x="25.263" y="23.065" fill-opacity="0.5" width="3.729" height="4.66"/>
<path fill-opacity="0.5" d="M29.292,28.025h-4.329v-5.26h4.329V28.025z"/>
<rect x="25.263" y="23.065" fill-opacity="0.5" width="3.729" height="4.66"/>
<path fill="#FFFFFF" d="M22,7C10.885,7,7,10.887,7,22c0,11.114,3.885,14.999,15,14.999c11.111,0,15-3.885,15-14.999
	C37,10.887,33.111,7,22,7z M22,29.99h-2.663l-1.781-2.58l-2.048,2.58h-2.497v-2.163h1.498l1.665-2.098v-8.591h2.597v8.556
	l1.632,2.099H22V29.99z M22,25.729h-2.264v-9.59h-4.395v9.589h-2.331v-11.72H22V25.729z M30.989,29.991h-7.856V21h1.397v-6.991
	h2.132v0.999h3.995v2.331h-3.93V21h4.262V29.991z"/>
<rect x="25.263" y="23.065" fill="#FFFFFF" width="3.729" height="4.66"/>
<linearGradient id="SVGID_1_" gradientUnits="userSpaceOnUse" x1="21.9995" y1="0.168" x2="21.9995" y2="36.7626">
	<stop  offset="0" style="stop-color:#000000;stop-opacity:0.2"/>
	<stop  offset="0.7755" style="stop-color:#000000"/>
	<stop  offset="1" style="stop-color:#000000"/>
</linearGradient>
<path fill="url(#SVGID_1_)" fill-opacity="0.2" d="M22,8C10.885,8,7,11.758,7,22.5c0,10.744,3.885,14.499,15,14.499
	c11.111,0,15-3.755,15-14.499C37,11.758,33.111,8,22,8z M22,29.99h-2.663l-1.781-2.58l-2.048,2.58h-2.497v-2.163h1.498l1.665-2.098
	v-8.591h2.597v8.556l1.632,2.099H22V29.99z M22,25.729h-2.264v-9.59h-4.395v9.589h-2.331v-11.72H22V25.729z M30.989,29.991h-7.856
	V21h1.397v-6.991h2.132v0.999h3.995v2.331h-3.93V21h4.262V29.991z"/>
<linearGradient id="SVGID_2_" gradientUnits="userSpaceOnUse" x1="27.127" y1="21.8071" x2="27.127" y2="27.6878">
	<stop  offset="0" style="stop-color:#000000;stop-opacity:0.2"/>
	<stop  offset="0.7755" style="stop-color:#000000"/>
	<stop  offset="1" style="stop-color:#000000"/>
</linearGradient>
<path fill="url(#SVGID_2_)" fill-opacity="0.2" d="M25.263,23.065h3.729v4.66h-3.729V23.065z"/>
<path fill="none" d="M0,0v44h44V0H0z M22,29.99h-2.663l-1.781-2.58l-2.048,2.58h-2.497v-2.163h1.498l1.665-2.098v-8.591h2.597v8.556
	l1.632,2.099H22V29.99z M22,25.729h-2.264v-9.59h-4.395v9.589h-2.331v-11.72H22V25.729z M30.989,29.991h-7.856V21h1.397v-6.991
	h2.132v0.999h3.995v2.331h-3.93V21h4.262V29.991z"/>
<polygon fill="none" points="18.471,25.797 18.471,17.438 16.474,17.438 16.474,25.834 14.654,28.127 13.311,28.127 13.311,29.69 
	15.363,29.69 17.572,26.906 19.494,29.69 21.7,29.69 21.7,28.093 20.255,28.093 "/>
<polygon fill="none" points="13.311,14.309 13.311,25.429 15.042,25.429 15.042,15.84 20.036,15.84 20.036,25.43 21.7,25.43 
	21.7,14.309 "/>
<polygon fill="none" points="18.471,25.797 18.471,17.438 16.474,17.438 16.474,25.834 14.654,28.127 13.311,28.127 13.311,29.69 
	15.363,29.69 17.572,26.906 19.494,29.69 21.7,29.69 21.7,28.093 20.255,28.093 "/>
<polygon fill="none" points="26.428,17.039 30.357,17.039 30.357,15.308 26.362,15.308 26.362,14.309 24.83,14.309 24.83,21.3 
	23.433,21.3 23.433,29.691 30.689,29.691 30.689,21.3 26.428,21.3 "/>
<path fill="none" d="M13.011,14.009v11.72h2.331V16.14h4.395v9.59H22V14.009H13.011z M21.7,25.43h-1.664v-9.59h-4.994v9.589h-1.731
	v-11.12h8.39V25.43z"/>
<polygon fill="none" points="18.471,25.797 18.471,17.438 16.474,17.438 16.474,25.834 14.654,28.127 13.311,28.127 13.311,29.69 
	15.363,29.69 17.572,26.906 19.494,29.69 21.7,29.69 21.7,28.093 20.255,28.093 "/>
<polygon fill="none" points="13.311,14.309 13.311,25.429 15.042,25.429 15.042,15.84 20.036,15.84 20.036,25.43 21.7,25.43 
	21.7,14.309 "/>
<polygon fill="none" points="18.471,25.797 18.471,17.438 16.474,17.438 16.474,25.834 14.654,28.127 13.311,28.127 13.311,29.69 
	15.363,29.69 17.572,26.906 19.494,29.69 21.7,29.69 21.7,28.093 20.255,28.093 "/>
<polygon fill="none" points="18.471,25.797 18.471,17.438 16.474,17.438 16.474,25.834 14.654,28.127 13.311,28.127 13.311,29.69 
	15.363,29.69 17.572,26.906 19.494,29.69 21.7,29.69 21.7,28.093 20.255,28.093 "/>
<polygon fill="none" points="18.471,25.797 18.471,17.438 16.474,17.438 16.474,25.834 14.654,28.127 13.311,28.127 13.311,29.69 
	15.363,29.69 17.572,26.906 19.494,29.69 21.7,29.69 21.7,28.093 20.255,28.093 "/>
<path fill="none" d="M26.728,21v-3.661h3.93v-2.331h-3.995v-0.999H24.53V21h-1.397v8.991h7.856V21H26.728z M30.689,29.691h-7.257
	V21.3h1.397v-6.991h1.532v0.999h3.995v1.731h-3.93V21.3h4.262V29.691z"/>
<rect x="25.263" y="23.065" fill="none" width="3.729" height="4.66"/>
<path fill="none" d="M26.428,17.039h3.93v-1.731h-3.995v-0.999H24.83V21.3h-1.397v8.392h7.257V21.3h-4.262V17.039z M28.992,23.065
	v4.66h-3.729v-4.66H28.992z"/>
<rect x="25.263" y="23.065" fill="none" width="3.729" height="4.66"/>
</svg>
