<?xml version="1.0" encoding="utf-8"?>
<!-- Generator: Adobe Illustrator 15.0.0, SVG Export Plug-In . SVG Version: 6.00 Build 0)  -->
<!DOCTYPE svg PUBLIC "-//W3C//DTD SVG 1.1//EN" "http://www.w3.org/Graphics/SVG/1.1/DTD/svg11.dtd">
<svg version="1.1" id="图层_1" xmlns="http://www.w3.org/2000/svg" xmlns:xlink="http://www.w3.org/1999/xlink" x="0px" y="0px"
	 width="30px" height="30px" viewBox="0 0 30 30" enable-background="new 0 0 30 30" xml:space="preserve">
<g>
	<g id="DO_NOT_EDIT_-_BOUNDING_BOX">
		<rect id="BOUNDING_BOX" fill="none" width="30" height="30"/>
	</g>
	<path opacity="0.15" fill="#FFFFFF" enable-background="new    " d="M18.052,29.531c-0.229,0-0.454-0.092-0.622-0.262L6.146,17.795
		c-0.279-0.277-0.625-0.811-0.651-1.38l-0.153-4.262L2.608,9.419c-0.34-0.34-0.341-0.89-0.002-1.231L3.407,7.38
		c0.162-0.164,0.385-0.257,0.617-0.257c0,0,0,0,0.002,0c0.173,0,0.339,0.052,0.481,0.146C4.286,6.93,4.323,6.471,4.619,6.173
		l0.804-0.807C5.586,5.202,5.808,5.109,6.04,5.109l0,0c0.231,0,0.454,0.092,0.617,0.256l2.749,2.748l4.237,0.141
		c0.55,0.027,1.096,0.354,1.4,0.663l11.469,11.272c0.254,0.246,0.33,0.625,0.196,0.951c-0.138,0.326-0.454,0.541-0.81,0.541h-6.977
		v6.979c0,0.354-0.215,0.67-0.542,0.806C18.273,29.511,18.163,29.531,18.052,29.531z M22.412,14.703
		c-0.961,0-1.744-0.782-1.744-1.744v-1.745h-1.746c-0.965,0-1.746-0.782-1.746-1.744c0-0.962,0.781-1.745,1.746-1.745h1.746V5.982
		c0-0.962,0.783-1.744,1.744-1.744c0.963,0,1.744,0.782,1.744,1.744v1.744h1.742c0.968,0,1.748,0.782,1.748,1.745
		c0,0.961-0.78,1.744-1.748,1.744h-1.742v1.745C24.156,13.921,23.375,14.703,22.412,14.703z"/>
	<path opacity="0.15" fill="#FFFFFF" enable-background="new    " d="M13.615,9.126L8.984,8.972l0.022-0.023L6.042,5.982
		L5.238,6.791l0.814,0.811L4.841,8.81L4.028,7.997L3.226,8.803l2.966,2.968L6.2,11.762l0.165,4.612
		c0.014,0.278,0.205,0.612,0.403,0.81l11.287,11.478v-7.851H25.9L14.422,9.527C14.233,9.335,13.879,9.14,13.615,9.126z M25.9,8.6
		h-2.615V5.982c0-0.482-0.391-0.872-0.872-0.872s-0.872,0.39-0.872,0.872v2.617h-2.616c-0.481,0-0.872,0.39-0.872,0.872
		c0,0.481,0.391,0.872,0.872,0.872h2.616v2.617c0,0.481,0.391,0.872,0.872,0.872s0.872-0.391,0.872-0.872v-2.617H25.9
		c0.482,0,0.873-0.39,0.873-0.872S26.384,8.6,25.9,8.6z"/>
	<path fill="#FFFFFF" d="M13.615,9.126L8.984,8.972l0.022-0.023L6.042,5.982L5.238,6.791l0.814,0.811L4.841,8.81L4.028,7.997
		L3.226,8.803l2.966,2.968L6.2,11.762l0.165,4.612c0.014,0.278,0.205,0.612,0.403,0.81l11.287,11.478v-7.851H25.9L14.422,9.527
		C14.233,9.335,13.879,9.14,13.615,9.126z M25.9,8.6h-2.615V5.982c0-0.482-0.391-0.872-0.872-0.872s-0.872,0.39-0.872,0.872v2.617
		h-2.616c-0.481,0-0.872,0.39-0.872,0.872c0,0.481,0.391,0.872,0.872,0.872h2.616v2.617c0,0.481,0.391,0.872,0.872,0.872
		s0.872-0.391,0.872-0.872v-2.617H25.9c0.482,0,0.873-0.39,0.873-0.872S26.384,8.6,25.9,8.6z"/>
	<rect fill="none" width="30" height="30"/>
	
		<linearGradient id="SVGID_1_" gradientUnits="userSpaceOnUse" x1="-771.1206" y1="-474.7666" x2="-771.1206" y2="-451.2197" gradientTransform="matrix(1 0 0 -1 786.1201 -446.9805)">
		<stop  offset="0" style="stop-color:#636363"/>
		<stop  offset="1" style="stop-color:#000000"/>
	</linearGradient>
	<path fill="url(#SVGID_1_)" d="M13.615,8.254L8.984,8.101l0.022-0.024L6.042,5.111L5.238,5.919L6.052,6.73L4.841,7.938L4.028,7.125
		L3.226,7.932l2.966,2.966L6.2,10.89l0.165,4.61c0.014,0.28,0.205,0.614,0.403,0.811l11.287,11.476v-7.849H25.9L14.422,8.655
		C14.233,8.463,13.879,8.266,13.615,8.254z M25.9,7.727h-2.615V5.111c0-0.482-0.391-0.872-0.872-0.872s-0.872,0.39-0.872,0.872
		v2.616h-2.616c-0.481,0-0.872,0.39-0.872,0.873c0,0.481,0.391,0.872,0.872,0.872h2.616v2.615c0,0.483,0.391,0.873,0.872,0.873
		s0.872-0.39,0.872-0.873V9.472H25.9c0.482,0,0.873-0.39,0.873-0.872C26.773,8.117,26.384,7.727,25.9,7.727z"/>
</g>
</svg>
