<?xml version="1.0" encoding="utf-8"?>
<!-- Generator: Adobe Illustrator 15.0.0, SVG Export Plug-In . SVG Version: 6.00 Build 0)  -->
<!DOCTYPE svg PUBLIC "-//W3C//DTD SVG 1.1//EN" "http://www.w3.org/Graphics/SVG/1.1/DTD/svg11.dtd">
<svg version="1.1" id="图层_1" xmlns="http://www.w3.org/2000/svg" xmlns:xlink="http://www.w3.org/1999/xlink" x="0px" y="0px"
	 width="30px" height="30px" viewBox="0 0 30 30" enable-background="new 0 0 30 30" xml:space="preserve">
<g>
	<g id="DO_NOT_EDIT_-_BOUNDING_BOX">
		<rect id="BOUNDING_BOX" fill="none" width="30" height="30"/>
	</g>
	<rect fill="none" width="30" height="30"/>
	<g>
		<path opacity="0.15" fill="#FFFFFF" enable-background="new    " d="M15,28.446c-0.479,0-0.908-0.273-1.18-0.744L8.256,17.96
			c-0.271-0.472-0.287-0.979-0.046-1.391c0.238-0.414,0.688-0.651,1.231-0.651h2.101v-5.188c0-0.702,0.42-1.31,1.023-1.579H5.526
			c-0.975,0-1.767-0.792-1.767-1.767V5.579c0-0.974,0.792-1.767,1.767-1.767h18.948c0.975,0,1.766,0.792,1.766,1.767v1.804
			c0,0.974-0.791,1.767-1.766,1.767h-7.041c0.605,0.27,1.023,0.876,1.023,1.579v5.188h2.102c0.541,0,0.992,0.236,1.23,0.65
			c0.24,0.413,0.227,0.919-0.047,1.392l-5.564,9.74C15.91,28.173,15.48,28.446,15,28.446z"/>
		<path opacity="0.15" fill="#FFFFFF" enable-background="new    " d="M24.475,4.677H5.526c-0.495,0-0.902,0.406-0.902,0.903v1.804
			c0,0.496,0.407,0.902,0.902,0.902h18.948c0.496,0,0.9-0.405,0.9-0.902V5.579C25.375,5.083,24.971,4.677,24.475,4.677z
			 M20.559,16.781h-2.102c-0.475,0-0.863-0.389-0.863-0.865v-5.187c0-0.476-0.391-0.866-0.865-0.866h-3.458
			c-0.475,0-0.864,0.39-0.864,0.866v5.187c0,0.477-0.39,0.865-0.864,0.865H9.44c-0.475,0-0.672,0.34-0.436,0.75l2.354,4.118
			c0.236,0.415,0.622,1.09,0.859,1.502l2.352,4.118c0.236,0.415,0.622,0.415,0.857,0l2.355-4.118
			c0.232-0.412,0.621-1.087,0.857-1.502l2.355-4.118C21.23,17.121,21.033,16.781,20.559,16.781z"/>
		<path fill="#FFFFFF" d="M24.475,4.677H5.526c-0.495,0-0.902,0.406-0.902,0.903v1.804c0,0.496,0.407,0.902,0.902,0.902h18.948
			c0.496,0,0.9-0.405,0.9-0.902V5.579C25.375,5.083,24.971,4.677,24.475,4.677z M20.559,16.781h-2.102
			c-0.475,0-0.863-0.389-0.863-0.865v-5.187c0-0.476-0.391-0.866-0.865-0.866h-3.458c-0.475,0-0.864,0.39-0.864,0.866v5.187
			c0,0.477-0.39,0.865-0.864,0.865H9.44c-0.475,0-0.672,0.34-0.436,0.75l2.354,4.118c0.236,0.415,0.622,1.09,0.859,1.502
			l2.352,4.118c0.236,0.415,0.622,0.415,0.857,0l2.355-4.118c0.232-0.412,0.621-1.087,0.857-1.502l2.355-4.118
			C21.23,17.121,21.033,16.781,20.559,16.781z"/>
		
			<linearGradient id="SVGID_1_" gradientUnits="userSpaceOnUse" x1="-27.8804" y1="465.3379" x2="-27.8804" y2="442.4326" gradientTransform="matrix(1 0 0 1 42.8799 -438.6201)">
			<stop  offset="0" style="stop-color:#636363"/>
			<stop  offset="1" style="stop-color:#000000"/>
		</linearGradient>
		<path fill="url(#SVGID_1_)" d="M24.475,3.812H5.526c-0.495,0-0.902,0.405-0.902,0.903v1.803c0,0.497,0.407,0.903,0.902,0.903
			h18.948c0.496,0,0.9-0.406,0.9-0.903V4.715C25.375,4.217,24.971,3.812,24.475,3.812z M20.559,15.916h-2.102
			c-0.475,0-0.863-0.391-0.863-0.864V9.864c0-0.476-0.391-0.865-0.865-0.865h-3.458c-0.475,0-0.864,0.389-0.864,0.865v5.188
			c0,0.474-0.39,0.864-0.864,0.864H9.44c-0.475,0-0.672,0.34-0.436,0.75l2.354,4.12c0.236,0.413,0.622,1.088,0.859,1.502l2.352,4.12
			c0.236,0.413,0.622,0.413,0.857,0l2.355-4.12c0.232-0.412,0.621-1.087,0.857-1.502l2.355-4.12
			C21.23,16.256,21.033,15.916,20.559,15.916z"/>
	</g>
</g>
</svg>
