<?xml version="1.0" encoding="utf-8"?>
<!-- Generator: Adobe Illustrator 15.0.0, SVG Export Plug-In . SVG Version: 6.00 Build 0)  -->
<!DOCTYPE svg PUBLIC "-//W3C//DTD SVG 1.1//EN" "http://www.w3.org/Graphics/SVG/1.1/DTD/svg11.dtd">
<svg version="1.1" id="图层_1" xmlns="http://www.w3.org/2000/svg" xmlns:xlink="http://www.w3.org/1999/xlink" x="0px" y="0px"
	 width="30px" height="30px" viewBox="0 0 30 30" enable-background="new 0 0 30 30" xml:space="preserve">
<g>
	<g id="DO_NOT_EDIT_-_BOUNDING_BOX">
		<rect id="BOUNDING_BOX" fill="none" width="30" height="30"/>
	</g>
	<g>
		<rect fill="none" width="30" height="30"/>
	</g>
	<g>
		<path opacity="0.15" fill="#FFFFFF" enable-background="new    " d="M23.066,29.48c-0.868,0-1.768-0.481-2.226-1.184l-1.204-1.389
			h-0.582c-0.351,0-0.676-0.184-0.854-0.482l-0.228-0.375h-7.738c-0.243,0-0.477-0.088-0.659-0.248l-2.933-2.57
			c-0.107-0.094-0.192-0.209-0.25-0.336c-0.153,0.093-0.331,0.146-0.516,0.146c-0.074,0-0.15-0.008-0.226-0.024l0.225-0.976
			l-0.265,0.966l-0.138-0.033c-1.247-0.32-2.355-0.759-3.294-1.295c-0.364-0.209-0.56-0.623-0.489-1.037l0.021-0.125
			c0.33-1.326,1.622-2.004,1.768-2.076c1.498-0.881,3.026-1.478,3.09-1.502c0.711-0.283,1.167-0.785,1.345-1.488
			c0.06-0.24,0.099-0.416,0.12-0.539c-0.666-0.729-1.045-1.813-1.228-2.479c-0.536-0.342-0.704-1.125-0.825-1.688
			c-0.031-0.146-0.058-0.279-0.088-0.373C5.659,9.614,5.615,9.194,5.641,8.926C5.64,8.585,5.721,8.297,5.883,8.061
			C5.74,7.547,5.672,7.065,5.692,6.491C5.7,6.237,5.684,6.012,5.669,5.796C5.596,4.725,5.624,3.839,6.655,2.185
			C6.803,1.928,7.133,1.607,7.6,1.459c0.011-0.021,0.023-0.043,0.035-0.065c0.158-0.303,0.533-1.02,1.632-1.02
			c0.108,0,0.229,0.007,0.364,0.023c0.007-0.006,0.117-0.05,0.197-0.082C10.143,0.189,10.619,0,11.33,0
			c0.543,0,1.144,0.109,1.836,0.333L14.004,0.6c1.727,0.548,2.372,0.752,2.909,1.558c1.163,1.75,1.213,2.551,1.155,3.664
			c-0.008,0.168-0.02,0.344-0.021,0.543c0,0.543-0.092,0.978-0.181,1.396c-0.016,0.064-0.028,0.129-0.041,0.193
			c0.007,0.006,0.014,0.015,0.021,0.021c0.185,0.208,0.389,0.584,0.313,1.189c-0.014,0.074-0.104,0.533-0.318,1.229
			c-0.027,0.094-0.059,0.204-0.09,0.321c-0.171,0.63-0.393,1.444-0.982,1.756c-0.18,0.633-0.558,1.698-1.222,2.433
			c0.019,0.106,0.052,0.268,0.111,0.51c0.047,0.132,0.418,0.926,1.034,1.351c0.08,0.049,0.214,0.116,0.361,0.176
			c0,0,0.45,0.178,1.104,0.479c0.259,0.119,0.454,0.346,0.538,0.617c0.008,0.023,0.015,0.051,0.021,0.074
			c0.105-0.037,0.222-0.059,0.337-0.059h0.582l1.204-1.39c0.458-0.701,1.354-1.183,2.226-1.183c0.082,0,0.162,0.004,0.24,0.013
			l2.605,0.284c0.686,0.074,1.643,0.408,2.145,0.901c0.563,0.55,0.816,1.546,0.816,2.239v7.121c0,0.693-0.257,1.693-0.818,2.244
			c-0.498,0.488-1.455,0.822-2.142,0.898l-2.604,0.283C23.229,29.477,23.146,29.48,23.066,29.48z"/>
		<path opacity="0.15" enable-background="new    " d="M27.355,17.878c-0.283-0.278-0.981-0.56-1.551-0.621L23.2,16.973
			c-0.567-0.062-1.269,0.285-1.552,0.771l-1.558,1.793h-1.036l-0.52,0.857h-0.52l-0.521,0.508h-0.519l-0.52-0.508h-1.558
			l-0.519,0.508h-1.038l-0.519-0.508h-0.519l-0.518,0.508h-0.52l-0.521-0.508H10.23l-2.933,2.569l2.933,2.571h8.301l0.519,0.855
			h1.037l1.558,1.793c0.282,0.486,0.981,0.834,1.551,0.771l2.604-0.284c0.568-0.063,1.267-0.342,1.552-0.621
			c0.285-0.278,0.52-0.967,0.52-1.526V19.4C27.875,18.845,27.643,18.158,27.355,17.878z M26.161,25.537
			c0,0.474-0.384,0.857-0.856,0.857c-0.474,0-0.856-0.386-0.856-0.857v-5.143c0-0.476,0.384-0.857,0.856-0.857
			s0.856,0.384,0.856,0.857V25.537z M10.236,18.895h0.518c0.276,0,0.546,0.078,0.778,0.22c0.233-0.142,0.502-0.22,0.779-0.22h0.519
			c0.387,0,0.759,0.149,1.037,0.418c0.279-0.269,0.651-0.418,1.038-0.418h1.558c0.275,0,0.545,0.076,0.778,0.22
			c0.132-0.08,0.274-0.142,0.425-0.177l0.076-0.125c-0.624-0.287-1.053-0.457-1.053-0.457c-0.209-0.082-0.396-0.178-0.563-0.28
			c-0.922-0.636-1.395-1.763-1.439-1.935c-0.129-0.52-0.244-1.07-0.061-1.245c0.935-0.808,1.306-2.732,1.306-2.732
			c0.022-0.074,0.045-0.146,0.071-0.212c0.459,0.561,0.692-0.761,0.884-1.367c0.196-0.637,0.28-1.056,0.28-1.056
			c0.08-0.647-0.412-0.457-0.412-0.457l-0.039,0.042c0.07-0.904,0.332-1.454,0.332-2.271c0.007-1.26,0.313-1.716-0.969-3.646
			c-0.396-0.595-0.945-0.694-3.223-1.429c-2.268-0.734-2.592,0.196-3.346,0.106c-0.75-0.089-0.856,0.22-1,0.488
			c-0.148,0.269,0,0.483-0.412,0.499C7.686,2.885,7.504,3.199,7.504,3.199C6.277,5.166,6.732,5.755,6.691,7.011
			C6.668,7.679,6.775,8.177,7.123,9.099L7.086,9.047c0,0-0.48-0.225-0.443,0.426c0,0-0.068,0.204,0.205,1.077
			c0.162,0.502,0.287,1.896,0.756,1.454c0.014,0.052,0.035,0.107,0.053,0.159c0,0,0.367,1.925,1.299,2.732
			c0.191,0.175,0.07,0.726-0.059,1.246c-0.055,0.197-0.32,1.56-1.963,2.215c0,0-1.5,0.582-3.006,1.465c0,0-1.018,0.509-1.229,1.35
			l-0.021,0.126c0.857,0.49,1.869,0.892,3.049,1.196c0.053,0.014,0.101,0.021,0.151,0.033c0.081-0.262,0.226-0.504,0.437-0.688
			l2.933-2.57C9.521,19.025,9.872,18.895,10.236,18.895z"/>
		<path fill="#FFFFFF" d="M27.355,17.878c-0.283-0.278-0.981-0.56-1.551-0.621L23.2,16.973c-0.567-0.062-1.269,0.285-1.552,0.771
			l-1.558,1.793h-1.036l-0.52,0.857h-0.52l-0.521,0.508h-0.519l-0.52-0.508h-1.558l-0.519,0.508h-1.038l-0.519-0.508h-0.519
			l-0.518,0.508h-0.52l-0.521-0.508H10.23l-2.933,2.569l2.933,2.571h8.301l0.519,0.855h1.037l1.558,1.793
			c0.282,0.486,0.981,0.834,1.551,0.771l2.604-0.284c0.568-0.063,1.267-0.342,1.552-0.621c0.285-0.278,0.52-0.967,0.52-1.526V19.4
			C27.875,18.845,27.643,18.158,27.355,17.878z M26.161,25.537c0,0.474-0.384,0.857-0.856,0.857c-0.474,0-0.856-0.386-0.856-0.857
			v-5.143c0-0.476,0.384-0.857,0.856-0.857s0.856,0.384,0.856,0.857V25.537z M10.236,18.895h0.518c0.276,0,0.546,0.078,0.778,0.22
			c0.233-0.142,0.502-0.22,0.779-0.22h0.519c0.387,0,0.759,0.149,1.037,0.418c0.279-0.269,0.651-0.418,1.038-0.418h1.558
			c0.275,0,0.545,0.076,0.778,0.22c0.132-0.08,0.274-0.142,0.425-0.177l0.076-0.125c-0.624-0.287-1.053-0.457-1.053-0.457
			c-0.209-0.082-0.396-0.178-0.563-0.28c-0.922-0.636-1.395-1.763-1.439-1.935c-0.129-0.52-0.244-1.07-0.061-1.245
			c0.935-0.808,1.306-2.732,1.306-2.732c0.022-0.074,0.045-0.146,0.071-0.212c0.459,0.561,0.692-0.761,0.884-1.367
			c0.196-0.637,0.28-1.056,0.28-1.056c0.08-0.647-0.412-0.457-0.412-0.457l-0.039,0.042c0.07-0.904,0.332-1.454,0.332-2.271
			c0.007-1.26,0.313-1.716-0.969-3.646c-0.396-0.595-0.945-0.694-3.223-1.429c-2.268-0.734-2.592,0.196-3.346,0.106
			c-0.75-0.089-0.856,0.22-1,0.488c-0.148,0.269,0,0.483-0.412,0.499C7.686,2.885,7.504,3.199,7.504,3.199
			C6.277,5.166,6.732,5.755,6.691,7.011C6.668,7.679,6.775,8.177,7.123,9.099L7.086,9.047c0,0-0.48-0.225-0.443,0.426
			c0,0-0.068,0.204,0.205,1.077c0.162,0.502,0.287,1.896,0.756,1.454c0.014,0.052,0.035,0.107,0.053,0.159
			c0,0,0.367,1.925,1.299,2.732c0.191,0.175,0.07,0.726-0.059,1.246c-0.055,0.197-0.32,1.56-1.963,2.215c0,0-1.5,0.582-3.006,1.465
			c0,0-1.018,0.509-1.229,1.35l-0.021,0.126c0.857,0.49,1.869,0.892,3.049,1.196c0.053,0.014,0.101,0.021,0.151,0.033
			c0.081-0.262,0.226-0.504,0.437-0.688l2.933-2.57C9.521,19.025,9.872,18.895,10.236,18.895z"/>
		
			<linearGradient id="SVGID_1_" gradientUnits="userSpaceOnUse" x1="-199.0649" y1="94.0771" x2="-199.0649" y2="121.5518" gradientTransform="matrix(1 0 0 -1 214.3398 122.0391)">
			<stop  offset="0" style="stop-color:#636363"/>
			<stop  offset="1" style="stop-color:#000000"/>
		</linearGradient>
		<path fill="url(#SVGID_1_)" d="M27.355,16.878c-0.283-0.278-0.981-0.56-1.551-0.621L23.2,15.973
			c-0.567-0.062-1.269,0.285-1.552,0.771l-1.558,1.793h-1.036l-0.52,0.857h-0.52l-0.521,0.508h-0.519l-0.52-0.508h-1.558
			l-0.519,0.508h-1.038l-0.519-0.508h-0.519l-0.518,0.508h-0.52l-0.521-0.508H10.23l-2.933,2.569l2.933,2.571h8.301l0.519,0.855
			h1.037l1.558,1.793c0.282,0.486,0.981,0.834,1.551,0.771l2.604-0.284c0.568-0.063,1.267-0.342,1.552-0.621
			c0.285-0.278,0.52-0.967,0.52-1.526V18.4C27.875,17.845,27.643,17.158,27.355,16.878z M26.161,24.537
			c0,0.474-0.384,0.857-0.856,0.857c-0.474,0-0.856-0.386-0.856-0.857v-5.143c0-0.476,0.384-0.857,0.856-0.857
			s0.856,0.384,0.856,0.857V24.537z M10.236,17.895h0.518c0.276,0,0.546,0.078,0.778,0.22c0.233-0.142,0.502-0.22,0.779-0.22h0.519
			c0.387,0,0.759,0.149,1.037,0.418c0.279-0.269,0.651-0.418,1.038-0.418h1.558c0.275,0,0.545,0.076,0.778,0.22
			c0.132-0.08,0.274-0.142,0.425-0.177l0.076-0.125c-0.624-0.287-1.053-0.457-1.053-0.457c-0.209-0.082-0.396-0.178-0.563-0.28
			c-0.922-0.636-1.395-1.761-1.439-1.933c-0.129-0.52-0.244-1.07-0.061-1.245c0.935-0.808,1.306-2.732,1.306-2.732
			c0.022-0.074,0.045-0.146,0.071-0.212c0.459,0.561,0.692-0.761,0.884-1.367c0.196-0.637,0.28-1.056,0.28-1.056
			c0.08-0.647-0.412-0.457-0.412-0.457l-0.039,0.042c0.07-0.904,0.332-1.454,0.332-2.269c0.007-1.26,0.313-1.716-0.969-3.646
			c-0.396-0.595-0.945-0.694-3.223-1.429c-2.268-0.734-2.592,0.196-3.346,0.106c-0.75-0.089-0.856,0.22-1,0.488
			c-0.148,0.269,0,0.483-0.412,0.499C7.686,1.885,7.504,2.199,7.504,2.199C6.277,4.166,6.732,4.755,6.691,6.011
			C6.668,6.679,6.775,7.177,7.123,8.099L7.086,8.047c0,0-0.48-0.225-0.443,0.426c0,0-0.068,0.204,0.205,1.077
			c0.162,0.502,0.287,1.896,0.756,1.454c0.014,0.052,0.035,0.107,0.053,0.159c0,0,0.367,1.925,1.299,2.732
			c0.191,0.175,0.07,0.726-0.059,1.245c-0.055,0.198-0.32,1.559-1.963,2.215c0,0-1.5,0.582-3.006,1.465c0,0-1.018,0.508-1.229,1.349
			l-0.021,0.126c0.857,0.49,1.869,0.891,3.049,1.196c0.053,0.014,0.101,0.022,0.151,0.034c0.081-0.262,0.226-0.504,0.437-0.688
			l2.933-2.569C9.521,18.025,9.872,17.895,10.236,17.895z"/>
	</g>
</g>
</svg>
